<svg xmlns="http://www.w3.org/2000/svg" viewBox="0 0 414.73 16.41"><defs><style>.cls-1{fill:none;stroke:#fff;stroke-miterlimit:10;stroke-width:6px;}</style></defs><title>アセット 1</title><g id="レイヤー_2" data-name="レイヤー 2"><g id="レイヤー_1-2" data-name="レイヤー 1"><path class="cls-1" d="M0,3C13,3,13,13.41,25.92,13.41S38.88,3,51.84,3s13,10.41,25.92,10.41S90.72,3,103.68,3s13,10.41,25.92,10.41S142.56,3,155.51,3s13,10.41,25.92,10.41S194.39,3,207.35,3s13,10.41,25.92,10.41S246.23,3,259.19,3s13,10.41,25.92,10.41S298.07,3,311,3,324,13.41,337,13.41,349.92,3,362.88,3s13,10.41,25.92,10.41S401.77,3,414.73,3"/></g></g></svg>