<svg xmlns="http://www.w3.org/2000/svg" viewBox="0 0 54.48 41.52"><defs><style>.cls-1{fill:#fff;}</style></defs><title>アセット 3</title><g id="レイヤー_2" data-name="レイヤー 2"><g id="レイヤー_1-2" data-name="レイヤー 1"><path class="cls-1" d="M9.33,16.42H2a2,2,0,0,0-2,2V39.51a2,2,0,0,0,2,2H9.33a2,2,0,0,0,2-2V18.43A2,2,0,0,0,9.33,16.42ZM6.81,38.33a1.87,1.87,0,1,1,1.87-1.87A1.87,1.87,0,0,1,6.81,38.33Z"/><path class="cls-1" d="M51.09,13.06h-20a3.08,3.08,0,0,0-.75.09H30a11.22,11.22,0,0,0,1.28-6.27C31.1,4.49,29.09.27,26,0c-2.39-.19-2.85.71-2.85,3.11,0,0,0,2.32,0,3.81,0,2.67-.89,4-4,6.28-4.14,3-4.86,4.5-4.86,4.5v16c0,3.19,2.2,5.75,6.28,5.75H35.46c2.06,0,4.85-1,4.85-3.72a3.74,3.74,0,0,0-1.08-2.62A3.69,3.69,0,0,0,41,26.58a3.72,3.72,0,0,0,.21-6.73h9.85a3.4,3.4,0,0,0,0-6.79Z"/></g></g></svg>